<mxfile host="app.diagrams.net" modified="2023-12-22T00:54:42.159Z" agent="Mozilla/5.0 (X11; Ubuntu; Linux x86_64; rv:109.0) Gecko/20100101 Firefox/119.0" etag="rJjSdwlORYBaEmDfpOVi" version="22.1.11" type="device">
  <diagram id="o1aKiKGvE79FpxEEGH4N" name="Page-1">
    <mxGraphModel dx="1816" dy="1819" grid="1" gridSize="10" guides="1" tooltips="1" connect="1" arrows="1" fold="1" page="1" pageScale="1" pageWidth="827" pageHeight="1169" math="0" shadow="0">
      <root>
        <mxCell id="0" />
        <mxCell id="1" parent="0" />
        <mxCell id="9Or6uXxuDk2SgGoBRDMZ-13" value="Network" style="ellipse;shape=cloud;whiteSpace=wrap;html=1;" parent="1" vertex="1">
          <mxGeometry x="-80" y="-20" width="240" height="290" as="geometry" />
        </mxCell>
        <mxCell id="9Or6uXxuDk2SgGoBRDMZ-4" value="" style="rounded=1;whiteSpace=wrap;html=1;" parent="1" vertex="1">
          <mxGeometry x="160" y="-10" width="480" height="270" as="geometry" />
        </mxCell>
        <mxCell id="9Or6uXxuDk2SgGoBRDMZ-10" style="edgeStyle=orthogonalEdgeStyle;rounded=1;orthogonalLoop=1;jettySize=auto;html=1;exitX=1;exitY=0.5;exitDx=0;exitDy=0;entryX=0.5;entryY=0;entryDx=0;entryDy=0;startArrow=none;startFill=0;" parent="1" source="9Or6uXxuDk2SgGoBRDMZ-2" target="9Or6uXxuDk2SgGoBRDMZ-3" edge="1">
          <mxGeometry relative="1" as="geometry" />
        </mxCell>
        <mxCell id="9Or6uXxuDk2SgGoBRDMZ-2" value="Ingress" style="rounded=1;whiteSpace=wrap;html=1;" parent="1" vertex="1">
          <mxGeometry x="200" y="80" width="80" height="40" as="geometry" />
        </mxCell>
        <mxCell id="c2uN-sXVPwjXCb9XtD96-5" style="edgeStyle=orthogonalEdgeStyle;rounded=1;orthogonalLoop=1;jettySize=auto;html=1;exitX=1;exitY=0.25;exitDx=0;exitDy=0;entryX=0;entryY=0.5;entryDx=0;entryDy=0;startArrow=classic;startFill=1;" edge="1" parent="1" source="9Or6uXxuDk2SgGoBRDMZ-3" target="c2uN-sXVPwjXCb9XtD96-4">
          <mxGeometry relative="1" as="geometry" />
        </mxCell>
        <mxCell id="c2uN-sXVPwjXCb9XtD96-6" style="edgeStyle=orthogonalEdgeStyle;rounded=1;orthogonalLoop=1;jettySize=auto;html=1;entryX=0;entryY=0.5;entryDx=0;entryDy=0;startArrow=classic;startFill=1;" edge="1" parent="1" source="9Or6uXxuDk2SgGoBRDMZ-3" target="9Or6uXxuDk2SgGoBRDMZ-5">
          <mxGeometry relative="1" as="geometry">
            <Array as="points">
              <mxPoint x="460" y="140" />
              <mxPoint x="460" y="100" />
            </Array>
          </mxGeometry>
        </mxCell>
        <mxCell id="c2uN-sXVPwjXCb9XtD96-7" style="edgeStyle=orthogonalEdgeStyle;rounded=1;orthogonalLoop=1;jettySize=auto;html=1;exitX=1;exitY=0.75;exitDx=0;exitDy=0;entryX=0;entryY=0.5;entryDx=0;entryDy=0;startArrow=classic;startFill=1;" edge="1" parent="1" source="9Or6uXxuDk2SgGoBRDMZ-3" target="9Or6uXxuDk2SgGoBRDMZ-6">
          <mxGeometry relative="1" as="geometry" />
        </mxCell>
        <mxCell id="9Or6uXxuDk2SgGoBRDMZ-3" value="Federator" style="rounded=1;whiteSpace=wrap;html=1;" parent="1" vertex="1">
          <mxGeometry x="320" y="120" width="80" height="40" as="geometry" />
        </mxCell>
        <mxCell id="c2uN-sXVPwjXCb9XtD96-2" style="edgeStyle=orthogonalEdgeStyle;rounded=1;orthogonalLoop=1;jettySize=auto;html=1;entryX=1.003;entryY=0.67;entryDx=0;entryDy=0;entryPerimeter=0;" edge="1" parent="1" source="9Or6uXxuDk2SgGoBRDMZ-5" target="H7Ep_s1vv5dAR8AaKqD0-1">
          <mxGeometry relative="1" as="geometry">
            <mxPoint x="590" y="-100" as="targetPoint" />
            <Array as="points">
              <mxPoint x="610" y="100" />
              <mxPoint x="610" y="207" />
            </Array>
          </mxGeometry>
        </mxCell>
        <mxCell id="9Or6uXxuDk2SgGoBRDMZ-5" value="Brig" style="rounded=1;whiteSpace=wrap;html=1;" parent="1" vertex="1">
          <mxGeometry x="490" y="80" width="80" height="40" as="geometry" />
        </mxCell>
        <mxCell id="c2uN-sXVPwjXCb9XtD96-8" style="edgeStyle=orthogonalEdgeStyle;rounded=1;orthogonalLoop=1;jettySize=auto;html=1;entryX=1;entryY=0.25;entryDx=0;entryDy=0;" edge="1" parent="1" source="9Or6uXxuDk2SgGoBRDMZ-6" target="H7Ep_s1vv5dAR8AaKqD0-1">
          <mxGeometry relative="1" as="geometry">
            <mxPoint x="410" y="280" as="targetPoint" />
            <Array as="points">
              <mxPoint x="590" y="160" />
              <mxPoint x="590" y="190" />
            </Array>
          </mxGeometry>
        </mxCell>
        <mxCell id="9Or6uXxuDk2SgGoBRDMZ-6" value="Galley" style="rounded=1;whiteSpace=wrap;html=1;" parent="1" vertex="1">
          <mxGeometry x="490" y="140" width="80" height="40" as="geometry" />
        </mxCell>
        <mxCell id="9Or6uXxuDk2SgGoBRDMZ-14" value="Backend A" style="text;html=1;strokeColor=none;fillColor=none;align=center;verticalAlign=middle;whiteSpace=wrap;rounded=0;" parent="1" vertex="1">
          <mxGeometry x="190" width="60" height="20" as="geometry" />
        </mxCell>
        <mxCell id="9Or6uXxuDk2SgGoBRDMZ-17" style="edgeStyle=orthogonalEdgeStyle;rounded=1;orthogonalLoop=1;jettySize=auto;html=1;exitX=1;exitY=0.25;exitDx=0;exitDy=0;startArrow=none;startFill=0;entryX=0;entryY=0.5;entryDx=0;entryDy=0;dashed=1;dashPattern=12 12;" parent="1" source="9Or6uXxuDk2SgGoBRDMZ-15" edge="1" target="9Or6uXxuDk2SgGoBRDMZ-2">
          <mxGeometry relative="1" as="geometry">
            <mxPoint y="120" as="targetPoint" />
            <Array as="points">
              <mxPoint x="180" y="115" />
              <mxPoint x="180" y="100" />
            </Array>
          </mxGeometry>
        </mxCell>
        <mxCell id="9Or6uXxuDk2SgGoBRDMZ-15" value="&lt;div&gt;Backend B&lt;/div&gt;" style="rounded=1;whiteSpace=wrap;html=1;" parent="1" vertex="1">
          <mxGeometry x="-200" y="100" width="120" height="60" as="geometry" />
        </mxCell>
        <mxCell id="H7Ep_s1vv5dAR8AaKqD0-3" style="edgeStyle=orthogonalEdgeStyle;rounded=1;orthogonalLoop=1;jettySize=auto;html=1;entryX=0.5;entryY=0;entryDx=0;entryDy=0;startArrow=classic;startFill=1;" parent="1" source="H7Ep_s1vv5dAR8AaKqD0-1" target="H7Ep_s1vv5dAR8AaKqD0-2" edge="1">
          <mxGeometry relative="1" as="geometry" />
        </mxCell>
        <mxCell id="H7Ep_s1vv5dAR8AaKqD0-1" value="RabbitMQ" style="rounded=1;whiteSpace=wrap;html=1;" parent="1" vertex="1">
          <mxGeometry x="320" y="180" width="80" height="40" as="geometry" />
        </mxCell>
        <mxCell id="c2uN-sXVPwjXCb9XtD96-10" style="edgeStyle=orthogonalEdgeStyle;rounded=0;orthogonalLoop=1;jettySize=auto;html=1;exitX=0;exitY=0.5;exitDx=0;exitDy=0;entryX=0;entryY=0.75;entryDx=0;entryDy=0;" edge="1" parent="1" source="H7Ep_s1vv5dAR8AaKqD0-2" target="9Or6uXxuDk2SgGoBRDMZ-3">
          <mxGeometry relative="1" as="geometry" />
        </mxCell>
        <mxCell id="H7Ep_s1vv5dAR8AaKqD0-2" value="&lt;div&gt;Notification&lt;/div&gt;&lt;div&gt;Pusher&lt;br&gt;&lt;/div&gt;" style="rounded=1;whiteSpace=wrap;html=1;" parent="1" vertex="1">
          <mxGeometry x="200" y="190" width="80" height="40" as="geometry" />
        </mxCell>
        <mxCell id="c2uN-sXVPwjXCb9XtD96-4" value="Cargohold" style="rounded=1;whiteSpace=wrap;html=1;" vertex="1" parent="1">
          <mxGeometry x="490" y="20" width="80" height="40" as="geometry" />
        </mxCell>
        <mxCell id="c2uN-sXVPwjXCb9XtD96-9" style="edgeStyle=orthogonalEdgeStyle;rounded=0;orthogonalLoop=1;jettySize=auto;html=1;exitX=0;exitY=0.25;exitDx=0;exitDy=0;entryX=1.013;entryY=0.611;entryDx=0;entryDy=0;entryPerimeter=0;dashed=1;dashPattern=12 12;" edge="1" parent="1" source="9Or6uXxuDk2SgGoBRDMZ-3" target="9Or6uXxuDk2SgGoBRDMZ-15">
          <mxGeometry relative="1" as="geometry">
            <Array as="points">
              <mxPoint x="320" y="140" />
              <mxPoint x="125" y="140" />
              <mxPoint x="125" y="137" />
            </Array>
          </mxGeometry>
        </mxCell>
      </root>
    </mxGraphModel>
  </diagram>
</mxfile>
